<?xml version="1.0" encoding="utf-8"?>
<!-- Generator: Adobe Illustrator 27.9.0, SVG Export Plug-In . SVG Version: 6.00 Build 0)  -->
<svg version="1.2" baseProfile="tiny" id="Layer_1" xmlns="http://www.w3.org/2000/svg" xmlns:xlink="http://www.w3.org/1999/xlink"
	 x="0px" y="0px" viewBox="0 0 278.2 62.9" overflow="visible" xml:space="preserve">
<g>
	<g>
		<path fill="#EAEFF6" d="M89.6,34.2c0-7.9,5.8-13.7,14-13.7s13.9,5.8,13.9,13.7v2.2H96.2c0.8,3.8,3.7,5.8,7.4,5.8c2.8,0,4.9-0.8,6.2-2.5h6.7
			c-2,5-6.7,8.2-12.9,8.2C95.4,47.9,89.6,42.1,89.6,34.2z M110.9,31.4c-1-3.5-3.9-5.2-7.3-5.2c-3.5,0-6.3,1.8-7.3,5.2H110.9z"/>
		<path fill="#EAEFF6" d="M119.4,34.2c0-7.9,5.8-13.7,14-13.7c7.1,0,12.2,4.3,13.5,10.4h-6.3c-1.1-2.8-3.7-4.6-7.2-4.6c-4.6,0-7.7,3.3-7.7,7.9
			s3.1,7.9,7.7,7.9c3.4,0,6.1-1.8,7.2-4.6h6.3c-1.3,6.2-6.4,10.4-13.5,10.4C125.2,47.9,119.4,42.1,119.4,34.2z"/>
		<path fill="#EAEFF6" d="M148.9,13.2h6.3v11.7c1.7-2.8,4.4-4.3,7.7-4.3c6,0,11.7,3.9,11.7,13.2v13.5h-6.3V33.7c0-5-2.6-7.3-6.6-7.3
			c-3.9,0-6.6,2.5-6.6,7.3v13.5h-6.3V13.2z"/>
		<path fill="#EAEFF6" d="M176.3,34.2c0-7.9,5.8-13.7,14-13.7c7.1,0,12.2,4.3,13.5,10.4h-6.3c-1.1-2.8-3.7-4.6-7.2-4.6c-4.6,0-7.7,3.3-7.7,7.9
			s3.1,7.9,7.7,7.9c3.4,0,6.1-1.8,7.2-4.6h6.3c-1.3,6.2-6.4,10.4-13.5,10.4C182.1,47.9,176.3,42.1,176.3,34.2z"/>
		<path fill="#EAEFF6" d="M205.9,50.1h6.3c1.1,2.4,3.1,3.5,6.3,3.5c4.3,0,6.7-2.1,6.7-7.1v-3.3c-1.6,2.8-4.3,4.4-7.8,4.4c-6,0-11.7-3.9-11.7-13.2
			V21.2h6.3v13.2c0,5,2.6,7.3,6.6,7.3c3.9,0,6.6-2.5,6.6-7.3V21.2h6.3v25.1c0,9.1-5.7,12.7-13,12.7
			C212.4,59.1,207.4,56.3,205.9,50.1z"/>
		<path fill="#EAEFF6" d="M89.1,26.9v-5.7h-9.3v-8h-6.3v8h0v5.7h0v14.7c0,3.1,2.5,5.7,5.7,5.7h8.6v-5.7h-6.1c-1,0-1.8-0.8-1.8-1.8V26.9H89.1z"/>
		<path fill="#EAEFF6" d="M250.3,34.2c0-7.9,5.8-13.7,14-13.7s13.9,5.8,13.9,13.7v2.2h-21.3c0.8,3.8,3.7,5.8,7.4,5.8c2.8,0,4.9-0.8,6.2-2.5h6.7
			c-2,5-6.7,8.2-12.9,8.2C256.1,47.9,250.3,42.1,250.3,34.2z M271.6,31.4c-1-3.5-3.9-5.2-7.3-5.2c-3.5,0-6.3,1.8-7.3,5.2H271.6z"/>
		<path fill="#EAEFF6" d="M249.8,26.9v-5.7h-9.3v-8h-6.3v8h0v5.7h0v14.7c0,3.1,2.5,5.7,5.7,5.7h8.6v-5.7h-6.1c-1,0-1.8-0.8-1.8-1.8V26.9H249.8z"/>
	</g>
</g>
<g>
	<g id="_x3C_Radial_Repeat_x3E__00000139981931999647044090000016322748522396072864_">
		<circle fill="#9900FF" cx="28.2" cy="7" r="7"/>
	</g>
	<g id="_x3C_Radial_Repeat_x3E__00000136397791385929233290000003419965257569560455_">
		<circle fill="#9900FF" cx="49.3" cy="19.2" r="7"/>
	</g>
	<path fill="#265EEA" d="M28.2,62.9c3.9,0,7-3.1,7-7c0-3.2-1.9-4.6-2.1-5c-1.8-2.1-2.9-4.5-2.9-7.2c0-2,0.6-4,1.8-5.8
		c5.5-0.3,9.6,3.3,10.9,8.1c0.9,2.5,3.5,4.6,6.5,4.6c3.8,0,7-3.2,7-7c0-3.8-3.2-7-7-7c-2.2,0-5.2,1.7-9.6-0.9
		c-2.3-1.3-3.9-3.5-4.8-6.1c-0.8-3.1-3.7-5.2-6.7-5.2s-5.9,2.1-6.7,5.2c-0.9,2.6-2.5,4.8-4.8,6.1c-4.4,2.5-7.4,0.9-9.6,0.9
		c-3.8,0-7,3.2-7,7c0,3.8,3.2,7,7,7c3,0,5.7-2.1,6.5-4.6c1.3-4.8,5.4-8.4,10.9-8.1c1.1,1.8,1.8,3.7,1.8,5.8c0,2.6-1,5.1-2.9,7.2
		c-0.2,0.4-2.1,1.9-2.1,5C21.2,59.7,24.3,62.9,28.2,62.9z"/>
	<g id="_x3C_Radial_Repeat_x3E__00000125582458368972058780000007080842275258753932_">
		<circle fill="#9900FF" cx="7" cy="19.2" r="7"/>
	</g>
</g>
</svg>