<?xml version="1.0" encoding="UTF-8"?>
<svg version="1.1" xmlns="http://www.w3.org/2000/svg" width="800" height="181">
<path d="M0 0 C5.88523176 4.1930721 8.33619687 9.19455821 10.8046875 15.82421875 C14.04345096 23.5632865 19.15448371 28.14066463 26.84765625 31.31640625 C33.57639343 33.80545823 39.3167799 33.16082991 46.2890625 32.41796875 C52.66025035 31.91061535 57.37831612 32.91528671 62.84765625 36.31640625 C67.35886958 40.33591193 69.91943604 44.23140708 70.84765625 50.31640625 C71.12715542 57.03556626 69.67472967 61.99965924 65.6328125 67.3984375 C61.8766483 71.43405374 58.34312291 73.0340245 52.87890625 73.65234375 C45.51289884 73.88936874 41.01164719 72.87773225 35.22265625 68.19140625 C32.69151969 65.12739884 31.44424656 62.35035936 29.93359375 58.71875 C26.1487559 50.34581736 20.52085293 43.08115279 11.91015625 39.44140625 C7.81217495 38.07006613 4.13950455 38.08648581 -0.15234375 38.31640625 C-3.41972451 47.38934767 -5.69110442 54.13793369 -1.9453125 63.25390625 C0.70275671 68.84349826 3.68114284 73.84939808 7.6484375 78.59765625 C10.4472913 82.6090428 10.33555238 87.58824921 9.84765625 92.31640625 C7.81696975 98.51534398 4.79775668 103.54887104 -0.890625 106.95703125 C-7.02459703 109.5134651 -14.34533137 109.59527822 -20.6640625 107.47265625 C-25.62141579 104.67765325 -29.30229301 100.72294723 -31.15234375 95.31640625 C-32.20499312 88.50230953 -32.39784237 82.32052596 -28.46484375 76.44140625 C-27.3773819 75.05315708 -26.27348374 73.6776021 -25.15234375 72.31640625 C-20.25778206 65.2597482 -16.83962055 58.16965572 -18.15234375 49.31640625 C-19.29320817 45.5664345 -20.6603934 41.93971423 -22.15234375 38.31640625 C-30.65315137 37.6981657 -36.70626662 40.14287601 -43.40234375 45.37890625 C-47.95790015 49.58194936 -49.86910123 54.66663096 -52.15234375 60.31640625 C-54.67502849 65.88299158 -57.84737355 69.33774549 -63.15234375 72.31640625 C-68.49432221 74.09706574 -74.86244344 74.31663235 -80.28515625 72.66796875 C-85.60895356 69.87476568 -90.25116319 65.01994794 -92.15234375 59.31640625 C-92.82545573 51.86803594 -92.71847019 45.47918474 -88.15234375 39.31640625 C-83.76341816 34.92748066 -78.73801789 32.4947286 -72.52734375 32.06640625 C-70.03411745 32.14356606 -67.61791257 32.38295021 -65.140625 32.69140625 C-55.75578999 33.75761236 -48.3266034 32.55011671 -40.46484375 27.06640625 C-36.43771204 23.31933886 -34.32216204 18.16680715 -32.0793457 13.22949219 C-29.1316949 6.80301297 -25.72628634 1.51909623 -19.15234375 -1.68359375 C-12.43899651 -3.65729004 -6.13846673 -3.50246511 0 0 Z " fill="#FFFFFF" transform="translate(92.15234375,72.68359375)"/>
<path d="M0 0 C6.27 0 12.54 0 19 0 C19.01458252 1.32652588 19.02916504 2.65305176 19.04418945 4.01977539 C19.10234122 8.9606364 19.17957334 13.90104972 19.26245117 18.84155273 C19.29562117 20.97624422 19.32367758 23.11102173 19.34643555 25.24584961 C19.38012717 28.32182331 19.43245103 31.39701426 19.48828125 34.47265625 C19.49467117 35.42084732 19.5010611 36.36903839 19.50764465 37.34596252 C19.65433389 44.01862504 20.59374784 48.92995414 24.8125 54.3125 C29.06454121 57.59264608 33.57333985 58.46987529 38.9140625 58.31640625 C43.88069266 57.563041 47.72960594 55.17009979 51.375 51.8125 C55.13971828 45.29664144 55.31134894 37.73812733 55.4140625 30.37109375 C55.43342865 29.49598648 55.4527948 28.62087921 55.4727478 27.71925354 C55.53192463 24.95876424 55.57867819 22.19823182 55.625 19.4375 C55.66323692 17.55141537 55.70229185 15.66534714 55.7421875 13.77929688 C55.83909491 9.18628939 55.91915223 4.59342971 56 0 C62.27 0 68.54 0 75 0 C75.04534633 9.84957176 75.08197085 19.69907317 75.10362434 29.54872608 C75.11402161 34.12326273 75.12810594 38.69772369 75.15087891 43.2722168 C75.17275294 47.69426394 75.18459906 52.11623869 75.18975449 56.5383358 C75.19342428 58.21786321 75.20058979 59.89738707 75.21146011 61.57688332 C75.30253769 76.24392055 75.10697937 89.24112579 64.9375 100.75 C56.73862524 108.46447735 45.44552677 110.31243233 34.60546875 110.1484375 C23.77449756 109.53138067 13.94335272 105.98614127 6.46875 97.89453125 C2.90858699 93.30229971 1.00539166 88.6972194 0 83 C3.24931927 82.82544979 6.49743448 82.71908247 9.75 82.625 C10.67039062 82.57472656 11.59078125 82.52445312 12.5390625 82.47265625 C15.15307977 82.41582979 17.44593843 82.4319253 20 83 C22.44921875 85.90625 22.44921875 85.90625 24 89 C30.15549864 92.76867264 37.11879806 93.15962256 44.12109375 91.49609375 C48.3058582 89.9211824 50.75969056 87.81682348 53 84 C54.89230555 78.3447097 55.21528105 72.92022881 55 67 C54.319375 67.7425 53.63875 68.485 52.9375 69.25 C48.80462872 73.37116343 43.90899171 76.43723888 38 77 C37.38898437 77.06316406 36.77796875 77.12632812 36.1484375 77.19140625 C26.62157915 77.72837463 17.69258033 74.94571019 10.4375 68.75 C6.54387365 64.9005477 3.76242937 61.1915039 2 56 C1.6592041 55.03650635 1.3184082 54.0730127 0.96728516 53.08032227 C-0.4722592 47.98029749 -0.24773288 42.85710764 -0.1953125 37.59765625 C-0.1924826 36.51995468 -0.18965271 35.44225311 -0.18673706 34.33189392 C-0.17559193 30.90864701 -0.15049756 27.48566709 -0.125 24.0625 C-0.11496289 21.73372775 -0.10583832 19.40495138 -0.09765625 17.07617188 C-0.07567111 11.38401259 -0.04118018 5.69205148 0 0 Z " fill="#FFFFFF" transform="translate(592,61)"/>
<path d="M0 0 C8.43917399 5.91693966 14.3224407 13.83908463 16.953125 23.83203125 C17.703125 28.64453125 17.703125 28.64453125 17.703125 41.64453125 C-2.426875 41.64453125 -22.556875 41.64453125 -43.296875 41.64453125 C-40.40092383 48.4632804 -40.40092383 48.4632804 -35.734375 52.58203125 C-34.86619141 53.15244141 -34.86619141 53.15244141 -33.98046875 53.734375 C-28.54694419 56.67175603 -22.28319096 56.17398136 -16.296875 55.64453125 C-12.35981003 54.37818871 -9.24723965 52.5948959 -6.296875 49.64453125 C-4.14208984 49.41748047 -4.14208984 49.41748047 -1.5078125 49.44921875 C-0.56679688 49.45566406 0.37421875 49.46210937 1.34375 49.46875 C2.82101562 49.49388672 2.82101562 49.49388672 4.328125 49.51953125 C5.32070313 49.52855469 6.31328125 49.53757813 7.3359375 49.546875 C9.79190634 49.57049009 12.24739668 49.60342326 14.703125 49.64453125 C11.85954198 59.12767653 6.19695394 65.19299928 -2.265625 70.203125 C-13.30068156 75.45046504 -25.66346261 76.17701268 -37.296875 72.64453125 C-48.34144369 68.301001 -56.38895367 62.22858298 -61.328125 51.265625 C-65.39924717 40.25061301 -65.38003541 28.34044032 -61.234375 17.33203125 C-55.74976199 5.68110192 -47.86339141 0.43067597 -36.296875 -4.35546875 C-24.65795392 -7.73343148 -10.35558829 -6.11120602 0 0 Z M-40.94921875 20.70703125 C-42.47343853 22.7040391 -42.47343853 22.7040391 -43.296875 25.64453125 C-30.096875 25.64453125 -16.896875 25.64453125 -3.296875 25.64453125 C-5.43861014 19.21932584 -7.42386535 16.64505276 -13.1875 13.66796875 C-24.17053988 9.0412551 -33.4538476 11.69209738 -40.94921875 20.70703125 Z " fill="#FFFFFF" transform="translate(321.296875,64.35546875)"/>
<path d="M0 0 C1.2375 0.804375 1.2375 0.804375 2.5 1.625 C7.53735749 6.41048961 10.44715775 12.61789436 13 19 C13 25.6 13 32.2 13 39 C-6.47 39.33 -25.94 39.66 -46 40 C-43.01756259 45.96487482 -40.67739227 49.2291752 -34.671875 52.12109375 C-28.85583604 54.03426446 -21.70452423 54.03351646 -16 51.6875 C-13.08080825 50.16732122 -13.08080825 50.16732122 -11.11035156 48.4128418 C-8.58412171 46.72157708 -7.24473965 46.64913962 -4.234375 46.70703125 C-3.34492187 46.71669922 -2.45546875 46.72636719 -1.5390625 46.73632812 C-0.61867188 46.76146484 0.30171875 46.78660156 1.25 46.8125 C2.18585938 46.82603516 3.12171875 46.83957031 4.0859375 46.85351562 C6.39121327 46.88880046 8.6953106 46.93809719 11 47 C9.89729526 54.39837949 4.81008974 59.98696034 -0.8828125 64.6171875 C-7.15192265 68.71177236 -14.50848728 71.57595211 -22 72 C-22.64839844 72.05027344 -23.29679688 72.10054688 -23.96484375 72.15234375 C-35.60256654 72.67846142 -45.91729146 69.21537537 -55 62 C-62.25026492 55.30860967 -66.78656178 45.86366591 -67.3359375 35.984375 C-67.36565752 34.57316953 -67.37820908 33.16151474 -67.375 31.75 C-67.37338867 31.00709717 -67.37177734 30.26419434 -67.37011719 29.4987793 C-67.11657761 18.03108488 -62.37013239 8.7046744 -54.1953125 0.7421875 C-38.84344964 -11.44096345 -15.57837551 -11.86923849 0 0 Z M-44 17 C-44.66 18.98 -45.32 20.96 -46 23 C-32.8 23 -19.6 23 -6 23 C-9.32012406 16.35975188 -12.24907713 12.75575113 -18.9375 9.625 C-28.80892112 7.61042426 -36.94326656 9.77524909 -44 17 Z " fill="#FFFFFF" transform="translate(787,67)"/>
<path d="M0 0 C6.27 0 12.54 0 19 0 C19.33 9.9 19.66 19.8 20 30 C22.64 27.69 25.28 25.38 28 23 C35.19345564 19.66149879 44.34033019 19.85973688 51.953125 21.72265625 C61.214098 25.23103099 67.88278424 30.30770782 72.09204102 39.34448242 C76.37011509 50.99410018 75.43634456 63.08319908 75.25 75.3125 C75.22990171 77.61391673 75.21165684 79.91535043 75.1953125 82.21679688 C75.15158745 87.81162256 75.08274296 93.40562089 75 99 C68.73 99 62.46 99 56 99 C55.9906543 97.65365479 55.98130859 96.30730957 55.97167969 94.92016602 C55.93160847 89.89347043 55.8658021 84.86737588 55.79248047 79.84106445 C55.76436996 77.67154703 55.74310641 75.50192909 55.72900391 73.33227539 C55.70743691 70.20146587 55.66071557 67.07185247 55.609375 63.94140625 C55.60814636 62.98166397 55.60691772 62.02192169 55.60565186 61.03309631 C55.46995303 54.69998797 54.39653533 49.4340497 51 44 C45.91685829 39.65814979 41.39147179 39.43313776 34.80859375 39.6796875 C29.92050027 40.2371613 27.18239511 41.81760489 23.75 45.25 C19.73439734 51.56023275 19.67656423 58.04103325 19.5859375 65.30859375 C19.56657135 66.27531509 19.5472052 67.24203644 19.5272522 68.23805237 C19.46780809 71.30444713 19.42121231 74.37088016 19.375 77.4375 C19.33678783 79.52540636 19.29773424 81.6132975 19.2578125 83.70117188 C19.16056288 88.80069891 19.08071514 93.90007761 19 99 C12.73 99 6.46 99 0 99 C0 66.33 0 33.66 0 0 Z " fill="#FFFFFF" transform="translate(428,38)"/>
<path d="M0 0 C9.08222166 6.36779827 14.7601788 14.67938932 16.703125 25.64453125 C13.45380573 25.81908146 10.20569052 25.92544878 6.953125 26.01953125 C5.57253906 26.09494141 5.57253906 26.09494141 4.1640625 26.171875 C1.55046294 26.22869238 -0.74282455 26.21033068 -3.296875 25.64453125 C-5.78125 22.76171875 -5.78125 22.76171875 -7.296875 19.64453125 C-13.44548865 14.11077897 -17.84225347 13.17986918 -26.03125 13.3359375 C-31.40121706 13.84338654 -35.20694619 15.33984785 -38.85546875 19.36328125 C-43.84362277 26.03299427 -43.98276286 32.48149969 -43.296875 40.64453125 C-41.64585251 46.57877779 -38.3488661 50.27653718 -33.296875 53.64453125 C-25.37609305 56.66882981 -19.19230917 56.13212599 -11.53515625 52.85546875 C-8.61174763 51.27386897 -7.02949089 49.46003207 -5.296875 46.64453125 C-4.636875 45.65453125 -3.976875 44.66453125 -3.296875 43.64453125 C-1.23388672 43.30395508 -1.23388672 43.30395508 1.2734375 43.3515625 C2.16933594 43.36123047 3.06523437 43.37089844 3.98828125 43.38085938 C5.39400391 43.41856445 5.39400391 43.41856445 6.828125 43.45703125 C8.24544922 43.47733398 8.24544922 43.47733398 9.69140625 43.49804688 C12.02921279 43.53346819 14.36588737 43.58285854 16.703125 43.64453125 C14.03665117 54.87229071 9.0696526 62.91185032 -0.74609375 69.2421875 C-11.11870581 74.94474145 -23.11513184 75.99825589 -34.5859375 73.45703125 C-45.75860947 70.10844945 -54.58434821 64.10240688 -60.171875 53.76953125 C-65.57519527 41.88950386 -65.52935166 29.87878454 -61.296875 17.64453125 C-56.04594641 6.1611921 -47.94777709 0.02266527 -36.296875 -4.35546875 C-24.61090062 -7.67961843 -10.40173206 -6.13843712 0 0 Z " fill="#FFFFFF" transform="translate(407.296875,64.35546875)"/>
<path d="M0 0 C6.98335321 4.97563916 11.58518147 12.10627377 14.1875 20.25 C14.1875 21.57 14.1875 22.89 14.1875 24.25 C-3.07501671 25.48059525 -3.07501671 25.48059525 -7.12890625 22.609375 C-8.5 20.5 -8.5 20.5 -9.66015625 18.296875 C-11.35022419 15.29485602 -13.36669623 14.209502 -16.4765625 12.875 C-22.71151113 11.20678632 -29.31507854 11.2048463 -35.25 13.875 C-40.16805683 16.78902536 -43.02930317 20.23606529 -45.125 25.625 C-46.49537306 32.85060343 -46.32531237 38.72820492 -42.8125 45.25 C-39.07548816 49.67540876 -34.68903151 53.38580419 -28.8125 54.25 C-23.09566927 54.69837888 -17.82973729 54.11699273 -12.8125 51.25 C-11.64344015 49.72018618 -10.5210418 48.15403021 -9.4375 46.5625 C-7.38157009 43.94816937 -5.93229402 42.45986835 -2.60839844 41.83691406 C3.0113957 41.45181783 8.58129708 41.79223545 14.1875 42.25 C12.28919283 52.18187865 8.43468956 59.15347119 0.52734375 65.6796875 C-10.05414432 72.78112023 -21.79952922 74.41197169 -34.1875 72.5625 C-43.79730635 70.6591727 -52.61112077 65.96744296 -58.46875 57.99609375 C-65.61506377 46.80370527 -67.83539252 35.04445701 -65.12109375 21.90234375 C-62.1155434 11.95510389 -56.36894578 4.18528105 -47.8125 -1.75 C-32.20152078 -9.50846859 -14.8735473 -9.01277866 0 0 Z " fill="#FFFFFF" transform="translate(572.8125,65.75)"/>
<path d="M0 0 C6.27 0 12.54 0 19 0 C19 7.59 19 15.18 19 23 C27.91 23 36.82 23 46 23 C46 28.61 46 34.22 46 40 C37.09 40 28.18 40 19 40 C19.09681176 45.37560012 19.19946157 50.75040614 19.31738281 56.12548828 C19.35571777 57.95484529 19.39056263 59.78427885 19.421875 61.61376953 C19.46742805 64.24018759 19.52543731 66.86607659 19.5859375 69.4921875 C19.59748871 70.31306854 19.60903992 71.13394958 19.62094116 71.97970581 C19.5572544 76.4624644 19.5572544 76.4624644 22 80 C24.12860662 80.36952049 24.12860662 80.36952049 26.5703125 80.4140625 C27.46621094 80.45273438 28.36210937 80.49140625 29.28515625 80.53125 C30.22230469 80.5621875 31.15945312 80.593125 32.125 80.625 C33.06988281 80.66367188 34.01476562 80.70234375 34.98828125 80.7421875 C37.3251935 80.8366082 39.6625703 80.91939898 42 81 C42 86.94 42 92.88 42 99 C37.4788042 99.08111115 32.95907158 99.14056327 28.4375 99.1875 C27.16068359 99.21263672 25.88386719 99.23777344 24.56835938 99.26367188 C10.92513072 99.36998275 10.92513072 99.36998275 5.0390625 94.31640625 C4.57242188 93.73761719 4.10578125 93.15882813 3.625 92.5625 C3.14289063 91.98628906 2.66078125 91.41007812 2.1640625 90.81640625 C-0.58450753 86.5275302 -0.13621725 81.66891792 -0.11352539 76.74316406 C-0.11367142 75.91352646 -0.11381744 75.08388885 -0.1139679 74.22911072 C-0.11327212 71.4912554 -0.10549539 68.75346841 -0.09765625 66.015625 C-0.09579088 64.11562131 -0.09436754 62.21561714 -0.09336853 60.31561279 C-0.08955273 55.31791859 -0.07973041 50.32025351 -0.06866455 45.3225708 C-0.05843031 40.22156162 -0.05386659 35.12054774 -0.04882812 30.01953125 C-0.03810732 20.01300599 -0.02051808 10.00650997 0 0 Z " fill="#FFFFFF" transform="translate(211,38)"/>
<path d="M0 0 C6.27 0 12.54 0 19 0 C19 7.59 19 15.18 19 23 C27.58 23 36.16 23 45 23 C45 28.61 45 34.22 45 40 C36.42 40 27.84 40 19 40 C19.11962963 45.53605203 19.24215731 51.07187484 19.37231445 56.60766602 C19.41572933 58.49239218 19.45739943 60.37715936 19.49731445 62.26196289 C19.55485893 64.96513249 19.61859804 67.66809436 19.68359375 70.37109375 C19.70866249 71.64296791 19.70866249 71.64296791 19.73423767 72.9405365 C19.46409195 76.78292076 19.46409195 76.78292076 21 80 C22.55948542 80.15686249 24.12542668 80.25076639 25.69140625 80.31640625 C26.63564453 80.35830078 27.57988281 80.40019531 28.55273438 80.44335938 C29.54595703 80.48267578 30.53917969 80.52199219 31.5625 80.5625 C33.05813477 80.62727539 33.05813477 80.62727539 34.58398438 80.69335938 C37.05581111 80.79980167 39.5278866 80.90043759 42 81 C42 86.94 42 92.88 42 99 C37.49963378 99.08122319 33.00074632 99.14061723 28.5 99.1875 C27.2315625 99.21263672 25.963125 99.23777344 24.65625 99.26367188 C9.59557919 99.38133337 9.59557919 99.38133337 4.45532227 94.54736328 C0.11326318 89.52868886 -0.14173241 86.09426291 -0.11352539 79.69482422 C-0.11367142 78.83621796 -0.11381744 77.97761169 -0.1139679 77.09298706 C-0.11326963 74.24686176 -0.10548125 71.40080141 -0.09765625 68.5546875 C-0.09579176 66.58456457 -0.09436801 64.61444118 -0.09336853 62.64431763 C-0.08954576 57.45260341 -0.07971751 52.26091706 -0.06866455 47.06921387 C-0.05844528 41.774011 -0.0538698 36.47880363 -0.04882812 31.18359375 C-0.03809504 20.78904827 -0.02050017 10.39453081 0 0 Z " fill="#FFFFFF" transform="translate(674,38)"/>
<path d="M0 0 C5.04279782 2.89493949 8.62163585 8.12589559 10.33203125 13.640625 C11.47665386 19.82913404 10.56716331 25.05862738 7.6875 30.5625 C3.68686104 35.59187469 -1.38426367 38.94422433 -7.76953125 39.94921875 C-13.74623183 40.21546194 -18.44479366 39.09673667 -23.3125 35.5625 C-27.18803714 31.87432979 -30.04493617 27.94257357 -30.6484375 22.57421875 C-30.73001838 15.63168603 -30.68162895 11.08139972 -26.3125 5.5625 C-19.22663865 -1.6786679 -9.51470458 -4.00715443 0 0 Z " fill="#FFFFFF" transform="translate(30.3125,36.4375)"/>
<path d="M0 0 C5.99537141 3.56246707 8.75925747 8.72795217 10.5 15.3125 C11.08955629 20.81502533 10.3125451 25.54705814 7.5 30.3125 C2.29412911 36.17341425 -2.57628031 39.00109368 -10.4375 39.625 C-17.40880745 39.41254111 -22.60501742 36.09623298 -27.5 31.3125 C-31.69871688 25.71421083 -31.09831941 18.99658257 -30.5 12.3125 C-28.7705513 6.47561064 -24.30995603 2.83268959 -19.5 -0.6875 C-13.31444008 -2.74935331 -5.96260471 -2.78479467 0 0 Z " fill="#FFFFFF" transform="translate(91.5,1.6875)"/>
<path d="M0 0 C4.35160346 3.17498965 7.11897025 6.71198852 9.2578125 11.640625 C10.19390321 17.77721963 9.97645784 23.05865452 7.1328125 28.640625 C2.80167621 33.67410771 -1.59286176 37.81141153 -8.43359375 38.58203125 C-15.56028906 38.91932523 -20.42589931 37.39788956 -25.9375 32.890625 C-30.631841 28.17360603 -32.02624758 22.88993803 -32.1796875 16.328125 C-31.56324019 10.3633461 -29.73647825 6.39059986 -25.3046875 2.328125 C-17.61008343 -3.59616255 -8.70530246 -5.00466781 0 0 Z " fill="#FFFFFF" transform="translate(153.1796875,37.671875)"/>
</svg>
